<?xml version="1.0" encoding="UTF-8"?>
<svg id="Layer_1" xmlns="http://www.w3.org/2000/svg" baseProfile="tiny" version="1.2" viewBox="0 0 100 100">
  <!-- Generator: Adobe Illustrator 29.6.0, SVG Export Plug-In . SVG Version: 2.1.1 Build 207)  -->
  <path d="M67.24,72.41V29.31s4.86,8.1,22.43,8.6c.94.03,1.71-.74,1.71-1.68v-12.18c0-.91-.72-1.62-1.63-1.68-13.63-.77-20.1-11.22-20.73-20.81-.06-.89-.83-1.56-1.73-1.56h-13.89c-.93,0-1.68.75-1.68,1.68v68.52c0,7.44-5.69,13.92-13.12,14.27-8.5.4-15.41-6.89-14.36-15.51.74-6.09,5.63-11.08,11.71-11.92,1.21-.17,2.39-.18,3.53-.05,1.01.11,1.9-.64,1.9-1.65v-12.21c0-.87-.66-1.62-1.53-1.67-1.74-.11-3.53-.07-5.34.13-13.4,1.52-24.22,12.36-25.7,25.77-1.96,17.69,11.83,32.66,29.12,32.66,16.19,0,29.31-13.12,29.31-29.31" fill="#fff"/>
</svg>